<svg xmlns="http://www.w3.org/2000/svg" viewBox="-1347 -3061 110.123 110.123">
  <defs>
    <style>
      .cls-1 {
        fill: #fff;
      }
    </style>
  </defs>
  <g id="Group_1071" data-name="Group 1071" transform="translate(8 20)">
    <path id="Subtraction_1" data-name="Subtraction 1" class="cls-1" d="M86.832,110.123l-63.371-.286L0,86.627.173,23.207,23.188.116,86.832,0l23.291,23.207V86.63ZM24.262,48.9v15.39L38.907,78.931H73.153L86.644,65.44V48.9H76.156L63.193,35.932l-2.454,2.455L71.247,48.9H38.373L49.524,37.744l-2.8-2.8L32.782,48.9Z" transform="translate(-1355 -3081)"/>
    <rect id="rectangle-73" class="cls-1" width="4.621" height="18.484" transform="translate(-1301.858 -3026.329)"/>
    <rect id="rectangle-73-2" data-name="rectangle-73" class="cls-1" width="4.621" height="18.484" transform="translate(-1290.306 -3026.329)"/>
    <rect id="rectangle-73-3" data-name="rectangle-73" class="cls-1" width="4.621" height="18.484" transform="translate(-1313.412 -3026.329)"/>
    <rect id="rectangle-73-4" data-name="rectangle-73" class="cls-1" width="4.621" height="9.242" transform="translate(-1324.963 -3026.329)"/>
    <rect id="rectangle-73-5" data-name="rectangle-73" class="cls-1" width="4.621" height="9.242" transform="translate(-1278.755 -3026.329)"/>
  </g>
</svg>
