<?xml version="1.0" encoding="utf-8"?>
<!-- Generator: Adobe Illustrator 19.2.1, SVG Export Plug-In . SVG Version: 6.00 Build 0)  -->
<svg version="1.1" id="Layer_1" xmlns="http://www.w3.org/2000/svg" xmlns:xlink="http://www.w3.org/1999/xlink" x="0px" y="0px"
	 viewBox="0 0 22.3 22" style="enable-background:new 0 0 22.3 22;" xml:space="preserve">
<style type="text/css">
	.st0{fill:#E2C600;}
</style>
<g id="rectangle-2">
	<path class="st0" d="M11,14.4l-5.8,4.2l2.4-5.7L3.2,8.5h5.1L11,3.2c0.7,1.5,2.1,4.4,2.6,5.1l0.1,0.2h5.1l-4.4,4.4l2.4,5.7L11,14.4z
		"/>
	<path class="st0" d="M11,4.3c0.8,1.6,1.8,3.6,2.2,4.3L13.4,9H14h3.6l-3.3,3.3l-0.5,0.5l0.3,0.6l1.6,3.7l-4.1-2.9L11,13.8l-0.6,0.4
		l-4.1,2.9l1.6-3.7l0.3-0.6l-0.5-0.5L4.4,9H8h0.6l0.3-0.6L11,4.3 M11,2L8,8H2l5,5l-3,7l7-5l7,5l-3-7l5-5h-6C13.4,7.1,11,2,11,2L11,2
		z"/>
</g>
</svg>
